:FULLY-SPECIFIED
:FORCE-ALL-JOINTS-BE-3DOF
:DEGREES
1
root 6.24314 16.836 -28.1378 9.0217 -2.52979 -3.05774
lfemur -20.3712 2.30257 -19.9954
ltibia 35.927 0 0
lfoot -38.654 3.93715 0
ltoes 38.9541 0 0
rfemur -19.4747 0.22019 19.5256
rtibia 36.0342 0 0
rfoot -30.3779 -10.4967 0
rtoes 21.4483 0 0
lowerback -2.05144 3.66971 -5.03766
upperback -2.66728 5.00355 3.49279
thorax -2.36397 2.67023 6.42441
lowerneck -9.84699 -2.36864 1.94815
upperneck -1.37933 -3.32542 -1.65382
head 1.16433 -1.69823 -0.975663
lclavicle -1.65488e-14 -3.69739e-14 0
lhumerus -41.7253 -10.8128 99.8312
lradius 34.5094 0 0
lwrist 2.17521 0 0
lhand -10.5949 9.65639 0
lfingers 7.12502 0 0
lthumb 15.4107 39.062 0
rclavicle -1.65488e-14 -3.69739e-14 0
rhumerus -43.273 -4.86223 -84.2703
rradius 40.4763 0 0
rwrist 9.89469 0 0
rhand -23.7965 -22.476 0
rfingers 7.12502 0 0
rthumb 2.67393 -52.439 0
2
root 6.23477 16.8403 -28.1297 9.07898 -2.61562 -3.00633
lfemur -20.3146 2.30608 -20.0284
ltibia 35.7876 0 0
lfoot -38.5795 4.02372 0
ltoes 38.8962 0 0
rfemur -19.3191 0.481043 19.4875
rtibia 35.6954 0 0
rfoot -30.3443 -10.7276 0
rtoes 21.5099 0 0
lowerback -2.27196 3.66691 -4.9678
upperback -2.629 5.00471 3.40155
thorax -2.18565 2.66154 6.30704
lowerneck -9.85593 -2.35615 1.98442
upperneck -1.42482 -3.31417 -1.59216
head 1.15174 -1.69158 -0.961486
lclavicle -2.5287e-14 -3.48535e-14 0
lhumerus -41.7526 -10.8453 99.6861
lradius 34.5872 0 0
lwrist 2.29823 0 0
lhand -10.6673 8.83513 0
lfingers 7.12502 0 0
lthumb 15.341 38.246 0
rclavicle -2.5287e-14 -3.48535e-14 0
rhumerus -43.1987 -4.87883 -84.4311
rradius 40.4521 0 0
rwrist 9.94026 0 0
rhand -23.8484 -22.4143 0
rfingers 7.12502 0 0
rthumb 2.62378 -52.3779 0
3
root 6.22641 16.8445 -28.1216 9.13626 -2.70145 -2.95493
lfemur -20.2581 2.30959 -20.0614
ltibia 35.6482 0 0
lfoot -38.505 4.1103 0
ltoes 38.8383 0 0
rfemur -19.1635 0.741897 19.4494
rtibia 35.3567 0 0
rfoot -30.3108 -10.9585 0
rtoes 21.5714 0 0
lowerback -2.49248 3.6641 -4.89793
upperback -2.59072 5.00588 3.31031
thorax -2.00734 2.65284 6.18966
lowerneck -9.86486 -2.34365 2.02068
upperneck -1.47031 -3.30292 -1.53049
head 1.13915 -1.68492 -0.947309
lclavicle -3.40253e-14 -3.27332e-14 0
lhumerus -41.7798 -10.8778 99.5411
lradius 34.665 0 0
lwrist 2.42126 0 0
lhand -10.7396 8.01386 0
lfingers 7.12502 0 0
lthumb 15.2713 37.43 0
rclavicle -3.40253e-14 -3.27332e-14 0
rhumerus -43.1243 -4.89543 -84.5919
rradius 40.4278 0 0
rwrist 9.98583 0 0
rhand -23.9003 -22.3526 0
rfingers 7.12502 0 0
rthumb 2.57363 -52.3167 0
4
root 6.21804 16.8487 -28.1135 9.19354 -2.78728 -2.90352
lfemur -20.2015 2.31311 -20.0943
ltibia 35.5088 0 0
lfoot -38.4305 4.19688 0
ltoes 38.7804 0 0
rfemur -19.0078 1.00275 19.4113
rtibia 35.0179 0 0
rfoot -30.2772 -11.1894 0
rtoes 21.633 0 0
lowerback -2.713 3.6613 -4.82807
upperback -2.55244 5.00704 3.21907
thorax -1.82902 2.64414 6.07229
lowerneck -9.8738 -2.33115 2.05695
upperneck -1.5158 -3.29167 -1.46883
head 1.12656 -1.67827 -0.933132
lclavicle -4.27636e-14 -3.06128e-14 0
lhumerus -41.8071 -10.9102 99.3961
lradius 34.7428 0 0
lwrist 2.54428 0 0
lhand -10.8119 7.1926 0
lfingers 7.12502 0 0
lthumb 15.2016 36.614 0
rclavicle -4.27636e-14 -3.06128e-14 0
rhumerus -43.05 -4.91203 -84.7527
rradius 40.4036 0 0
rwrist 10.0314 0 0
rhand -23.9522 -22.2908 0
rfingers 7.12502 0 0
rthumb 2.52348 -52.2556 0
5
root 6.20967 16.853 -28.1053 9.25081 -2.87312 -2.85211
lfemur -20.1449 2.31662 -20.1273
ltibia 35.3695 0 0
lfoot -38.356 4.28345 0
ltoes 38.7225 0 0
rfemur -18.8522 1.2636 19.3731
rtibia 34.6791 0 0
rfoot -30.2436 -11.4203 0
rtoes 21.6946 0 0
lowerback -2.93352 3.6585 -4.7582
upperback -2.51416 5.0082 3.12783
thorax -1.6507 2.63545 5.95492
lowerneck -9.88273 -2.31866 2.09322
upperneck -1.56128 -3.28042 -1.40716
head 1.11397 -1.67162 -0.918955
lclavicle -5.15018e-14 -2.84924e-14 0
lhumerus -41.8344 -10.9427 99.251
lradius 34.8205 0 0
lwrist 2.6673 0 0
lhand -10.8843 6.37134 0
lfingers 7.12502 0 0
lthumb 15.1319 35.7981 0
rclavicle -5.15018e-14 -2.84924e-14 0
rhumerus -42.9756 -4.92863 -84.9134
rradius 40.3794 0 0
rwrist 10.077 0 0
rhand -24.0042 -22.2291 0
rfingers 7.12502 0 0
rthumb 2.47333 -52.1945 0
6
root 6.20131 16.8573 -28.0972 9.30809 -2.95895 -2.80071
lfemur -20.0884 2.32013 -20.1603
ltibia 35.2301 0 0
lfoot -38.2815 4.37003 0
ltoes 38.6646 0 0
rfemur -18.6966 1.52446 19.335
rtibia 34.3404 0 0
rfoot -30.2101 -11.6512 0
rtoes 21.7561 0 0
lowerback -3.15404 3.65569 -4.68834
upperback -2.47588 5.00937 3.03659
thorax -1.47239 2.62675 5.83754
lowerneck -9.89166 -2.30617 2.12948
upperneck -1.60677 -3.26917 -1.3455
head 1.10138 -1.66496 -0.904778
lclavicle -6.02401e-14 -2.63721e-14 0
lhumerus -41.8616 -10.9752 99.1059
lradius 34.8983 0 0
lwrist 2.79033 0 0
lhand -10.9566 5.55007 0
lfingers 7.12502 0 0
lthumb 15.0622 34.9821 0
rclavicle -6.02401e-14 -2.63721e-14 0
rhumerus -42.9013 -4.94523 -85.0742
rradius 40.3551 0 0
rwrist 10.1225 0 0
rhand -24.0561 -22.1674 0
rfingers 7.12502 0 0
rthumb 2.42318 -52.1333 0
7
root 6.19294 16.8615 -28.0891 9.36537 -3.04478 -2.7493
lfemur -20.0318 2.32364 -20.1933
ltibia 35.0907 0 0
lfoot -38.207 4.4566 0
ltoes 38.6067 0 0
rfemur -18.541 1.78531 19.2969
rtibia 34.0016 0 0
rfoot -30.1765 -11.8821 0
rtoes 21.8177 0 0
lowerback -3.37456 3.65289 -4.61847
upperback -2.4376 5.01053 2.94535
thorax -1.29407 2.61806 5.72017
lowerneck -9.9006 -2.29367 2.16575
upperneck -1.65226 -3.25792 -1.28383
head 1.08879 -1.65831 -0.890601
lclavicle -6.89783e-14 -2.42517e-14 0
lhumerus -41.8889 -11.0077 98.9609
lradius 34.9761 0 0
lwrist 2.91335 0 0
lhand -11.029 4.72881 0
lfingers 7.12502 0 0
lthumb 14.9925 34.1661 0
rclavicle -6.89783e-14 -2.42517e-14 0
rhumerus -42.8269 -4.96183 -85.235
rradius 40.3309 0 0
rwrist 10.1681 0 0
rhand -24.108 -22.1057 0
rfingers 7.12502 0 0
rthumb 2.37303 -52.0722 0
